<?xml version="1.0" encoding="UTF-8"?>
<svg xmlns="http://www.w3.org/2000/svg" xmlns:xlink="http://www.w3.org/1999/xlink" version="1.1" viewBox="0 0 329 136">
  <defs>
    <style>
      .cls-1 {
        fill: none;
      }

      .cls-2, .cls-3, .cls-4 {
        fill-rule: evenodd;
      }

      .cls-2, .cls-5 {
        fill: #fff;
      }

      .cls-6, .cls-3 {
        fill: #00a651;
      }

      .cls-7 {
        fill: #00a14b;
      }

      .cls-8 {
        fill: #00a24b;
      }

      .cls-9 {
        clip-path: url(#clippath);
      }

      .cls-4 {
        fill: #21409a;
      }
    </style>
    <clipPath id="clippath">
      <rect class="cls-1" x="33.3" y="-63.2" width="262.5" height="262.5"/>
    </clipPath>
  </defs>
  <!-- Generator: Adobe Illustrator 28.6.0, SVG Export Plug-In . SVG Version: 1.2.0 Build 709)  -->
  <g>
    <g id="Layer_1">
      <g class="cls-9">
        <path class="cls-4" d="M88.3,32.5c9.5,4.1,18.6,6.8,28.8,9.1,20.8,4.6,43,4.2,66.9-1.5,13.9-4.3,27.1-10.6,40.3-16,1.4-.6,4.4-1.8,6.9-2.4,0,0-2.6,4-3.2,5-15.2,24.1-46.6,45.2-74.7,49.2-23,3.2-40.1-5.3-54-23-5-6.3-9-13.4-10.9-20.3"/>
        <path class="cls-2" d="M121.9,15.7c-.4.3-.8.5-1.2.8-.2.2-.4.3-.6.5-1,.9-2.1,2.1-2.8,3.2-.2.3-.5,1-.6,1.5.3,0,.7-.3.9-.4,1-.5,1.9-1.7,2.6-2.6.7-1,1.3-2,1.7-3.1M168,16.8c-3.7,3.7-6.2,8.4-8.6,13,.5-.3,1-.8,1.5-1.2,1.8-1.7,3.5-4.1,4.7-6.2.9-1.6,1.9-3.6,2.4-5.6ZM121.3,32.7c.2-.3.4-1.2.3-1.6-.3,0-.6.4-.8.5,0,0-.2.1-.2.2,0,.3.4.7.6.8ZM119.3,35.1c-.3-.2-.6-.5-.9-.9-.3.4-.7.8-1,1.2-.3.4-.7.9-1,1.4h.2c.9-.2,1.8-.9,2.6-1.7ZM102.8,33.9c.2.1.4.2.5.3,2.3,1,4.6.2,6.4-1.5.7-.7,1.4-1.6,1.7-2.5,0-.2.3-1,.2-1.2-.1,0-.4,0-.5,0-1.1.1-1.8,2-2.2,2.9l-.2.6h-.6c-1.3.5-2.7.8-4,1.1l-1.4.3ZM145.2,29.8c.1,0,.3,0,.4,0,1.2-.3,2.5-1.7,3.4-2.9-1,.8-2.2,1.5-3.2,2.4l-.6.6ZM144,26.5c-.1.3-.2.7-.3,1-.1.5-.3,1.7.1,2.2h0s0-1.2,0-1.2c0-.7,0-1.3.2-2ZM150.1,31.7c.4,0,.8-.1,1.3-.2.5-.8,1-1.6,1.5-2.5.7-1.2,1.5-2.5,2.2-3.7.9-1.4,1.9-2.7,2.9-4,2.7-3.2,5.8-5.9,9.2-8.4-2.2-.7-5.9,0-7.5.4-1.8.4-3.6,1.2-5.2,2.2.2,0,.4.1.6.2,1,.6,1.3,1.7,1.3,2.8h0c0,.1,0,.2,0,.2-.9,5.1-2.4,9.3-6.2,12.8ZM115,30.1h0c.4-.3.8-.6,1.3-.9,1.9-1.2,5.6-2.9,7.6-1.2.8.6,1,1.5,1,2.5.6-.5,1.2-1,1.9-1.5.9-.7,2.3-1.4,3.4-.7.7.5,1,1.4,1,2.3,1.8-1,4.1-1.7,5.6-.4,1.3,1,1.3,2.8.9,4.4h0c1.9-.3,4.2.9,4.6,2.9,0,.3,0,.6,0,.9-.4,1.1-1.6,1.6-2.6,1.9,1,.2,2,.3,3.1.2,3-.8,5.4-2.7,6.7-5.4-.1,0-.2,0-.3,0-.9.2-1.9.5-2.8.3l-.9-.2v-.9c0-.3,0-.6.2-.9-2.6.1-5-1.3-5.2-4.5,0-1.9.7-3.8,1.7-5.6-2.7,1-5.7,1-7.9-1.4-1.1-1.1-2-2.3-3.1-3.5-1-1.1-2.1-2.4-3.2-3.4-.2-.2-1.4-1.1-1.7-1-.1,0-.3.5-.3.7-1.2,4.2-4.6,10.2-9.6,10.4-1,0-1.9-.2-2.6-1-.8-.9-.9-2.1-.6-3.2.2-1.3.9-2.5,1.6-3.5,1-1.4,2.2-2.6,3.6-3.7-3.5,1.9-7.6,6-9.8,8.5-1.3,1.6-2.7,3.1-3.9,4.7-.9,1.3-3.1,4.5-2.5,6.1,0,.2.2.3.3.4l.2-1.4c.2-1.6,1.1-3.4,2.1-4.7,1.1-1.4,2.6-2.7,4.4-3.1,1.2-.3,2.5,0,3.6.5.7.3,1.2.8,1.6,1.5.6,1.1.7,2.3.5,3.5ZM183.8,28.1l-.5.5c-.4.4-.8,1-1,1.4-.5.8-1,1.6-1.4,2.4-.3.6-.6,1.2-.9,1.9.6-.9,1.2-1.9,1.8-2.8.7-1.1,1.4-2.3,2.1-3.4ZM154.6,12.2c1.5-.7,3-1.3,4.5-1.9,3.4-1.1,9-2.5,12.1.1.9-.5,1.8-1,2.8-1.4.9-.4,2.4-1.1,3.1,0,.3.6,0,1.2-.4,1.7-.2.2-.5.5-.8.7-.8.6-1.7,1.1-2.5,1.6.3,1.2.3,2.3.2,3.4.5-.5.9-1,1.5-1.5.9-.8,2.1-1.5,3.4-1.3.3,0,.5,0,.8.2l1.3.5-.8,1.2c-2.8,4.1-5.5,8.1-7.9,12.5.8,0,1.5.2,2.1.8,1.3,1.6,0,4.7-.8,6.3-.3.6-.6,1.2-.9,1.9.2-.1.4-.3.6-.4,1-.8,1.8-2,2.4-3.1.8-1.4,1.4-2.9,2.1-4.3.2-.4.4-.8.6-1.2l.2-.5h.5c1.2-.4,2.4-.7,3.6-1l4-1-.3.3c.9-.3,1.8-.6,2.7-1l3.1-1.1-1.7,2.8c-.5.9-1.1,1.7-1.6,2.6l-.4,3.4c0,.4-.1.8-.2,1.2v.3s-.3.3-.3.3c-.3.4-.7.8-1,1.2-.5.6-1.1,1.3-1.7,1.9-1.1,1.2-3.1,3.1-4.9,2.5-.3-.1-.6-.3-.8-.5-1,.9-2.3,1.5-3.6,1.2-.7-.2-1.2-.6-1.6-1.1-.5.4-1,.8-1.6,1.1-1.5.9-5,2.2-6.3.4-.7-.9-.4-2.1.1-3.1.7-1.3,1.5-2.7,2-4.2h0c-1.5,2.1-2.8,4.4-4,6.7l-.3.5h-.5c-1.2.4-2.5.6-3.7.9l-2.6.5,1.3-2.3c1.7-2.9,3.4-5.7,5.1-8.6-1.7.9-3.6,1.4-5.8,2.1-1,2.4-2.5,4.5-4.5,6.2h0s0,0,0,0c-3.3,2.4-6.3,3.2-10.2,3.7h0s0,0,0,0c-2.6.2-5.1-.1-7.4-1.4-.8.1-1.7.2-2.4.2-1.3,0-3.1-.2-3.8-1.5-.4-.8-.2-1.6.2-2.3h0c0,0,0-.1,0-.1.9-1.3,1.9-2.8,2.6-4.3,0-.2.2-.5.4-.9h0c-.6.5-1.2,1.1-1.7,1.6-1.6,1.9-3,4.1-4.1,6.4l-.3.7h-.7c-1.6,0-3.1,0-4.7-.1h-2.3c0,0,1.4-1.9,1.4-1.9,1-1.3,1.9-2.5,2.9-3.8,0,0-.2,0-.3,0-.9,1.1-2,2.1-3.2,2.9-2.6,1.7-5.6,2.3-8.4.6h0c0,0,0-.1,0-.1-.9-.8-1.2-1.8-1.1-2.8-3.6,2-7.7,1.8-11.4-.3-1.1-.6-2.3-1.3-3-2.5-.6-1.1-.7-2.3-.4-3.5,1.1-5.1,7-10.9,10.9-14,2.9-2.3,6.2-4.5,9.7-6,2.6-1.1,6-2,8.7-1,.6.2,1,.4,1.4.8.3,0,.6-.2.8-.3,1.8-.5,3.7-.4,5.4.3,2.9,1,4.7,4,6.6,6.2.3.3.6.5.9.7,1.5.7,3.7.1,5.1-.5,1-.5,2-1.1,2.9-1.8h0s0,0,0,0c1.7-1.3,3.4-2.6,5.1-3.9l4-3.1-2.1,4.1Z"/>
        <path class="cls-3" d="M123.6,13.5c-1.2.5-2.4,1.2-3.6,2.1-.2.2-.4.4-.6.5-1.1,1-2.2,2.2-3,3.5-1.2,1.9-1.4,4.4,1.8,2.8,1.1-.6,2-1.6,3-3,1.3-1.8,2.3-3.7,2.5-5.9M169.6,13.9c0,7-8.9,19.2-12.3,17.6,3-6,6.3-12.9,12.3-17.6ZM134.2,38.6c-.5.7-1,1.3,0,1.5,1,.3.7-.6.5-1.3-.2-.7,0-.7-.5-.2ZM120.1,30.7c-1.2,1-.3,2.6.8,3.1,2.4,1.1,3-6.2-.8-3.1ZM118.6,32.3c-1.3,1.4-2.7,3-3.2,4.1-.7,1.4.2,1.7,1.5,1.5,1.3-.2,2.7-1.2,4.4-3.2-1.4-.3-2-1.4-2.6-2.4ZM107.9,31.5c-1.3.3-2.7.7-4,1,.5-3.4,4.3-8.4,8.4-6.4,5.2,2.6-3,15.4-13.5,9.5-2.1-1.2-3.4-2.1-2.8-4.7,1.8-8.3,20.2-23.1,27.7-20.1,2.4,1,.6,1.2,3,.5,1.5-.4,3.1-.4,4.7.2,2.5.8,4.3,3.8,6.1,5.9,2.5,2.9,7.7.9,10.6-1.5,1.7-1.3,3.4-2.6,5.1-3.9-.8,1.6-1.9,2.8-3,4.1,3.1-2.8,16.7-9.1,20.6-4.2,4.6-2.6,8.1-3.6.9.6,1.3,3.8-.3,7.4-1.8,10.9,1.5-2.1,5.6-9.6,8.6-8.4-3.2,4.7-6.4,9.5-9.1,14.9,6.7-2.6,2.5,4.7.9,8-.5,1.1-.8,1.2.4.9,4.5-1,5.8-5.9,8-10.2,1.2-.3,2.4-.6,3.6-.9-1.5,1.5-6.8,10.9-3.1,9.1.8-.4,5.4-8.2,6.3-9.6,1.1-.4,2.3-.8,3.4-1.2-1.6,2.5-11,16.6-2.3,6.5,0,.4-.1.8-.2,1.2-1,1.1-6.3,8.2-7.3,3.8-1.5,2.2-4.4,3.5-5,0-1.8,3.2-9.4,5.2-7.1,1.2,5-8.9,3.7-13-4,1.4-1.2.3-2.5.5-3.7.8,2.8-4.8,5.6-9.5,8.5-14.3-3.2,4-6.4,4.9-11,6.2-.9,2.4-2.3,4.5-4.4,6.3-3.4,2.5-6.5,3-9.7,3.5-2.4.1-4.9,0-7.1-1.4-1.2.2-6.7.8-5.2-1.8,7.6-10.9.6-9.4-4.8,1.6-1.6,0-3.1,0-4.7-.1,1.4-1.8,3-3.9,4.4-5.8-1,.3-2,.1-3.2,0-2.1,2.8-6.4,6.2-10.5,3.8-1-.9-1-2-.1-3.3,1-1.6,2.8-3.3,4.3-4.5,4-3.1,10.6-4.6,7,3.2,4.3,1.8,5.8-4.8,1.1-.6,1-1.4,2-2.5,3.7-3.7,2.8-2,2.7.3,2.5,2.9,4.2-3.2,8.9-3.2,5.8,3.7.7-.4,1.5-.7,2.2-.8,1.3-.2,3.1.6,3.3,2,.3,1.9-5.9,1.7-3.7,3.1,1.4.7,3.1,1.1,5.5.9,4.1-1,7.1-4,8.4-8-1.2-.2-3.3,1-4.7.7,0-1,3.3-1.5,5.4-1.7,3.9-5.8,5.3-11.2,17.3-19.6-1.9-2.2-7.2-1.3-9.9-.7-6,1.4-11.1,6.1-14.9,10.7-2.7,3.9-3.3,9.1,1.3,7.8,4.8-1.3,10.2-14.1,6.4-10.9-1.7,1.5-2.5,3.7-3.6,5.6-1.2,1.1-2.6,1.7-3.7,2.8-.3-6.1,10.2-15.8,10.2-9.7-.9,5-2.4,9.1-6.4,12.6-2.7,1.8-7.1,1.6-7.2-2.3-.1-3.3,2.7-6.9,5.2-10-3,2.9-8.4,5.9-11.7,2.3-3.5-3.7-8.9-11.5-10.3-6.7-1.2,4-4.3,9.4-8.5,9.6-4.5.2-1.5-8.4,7.2-11.6-.9-.8-2.1-.8-3.4-.5-4.2,1.1-9.5,6.5-12.3,9.7-2.7,3.2-10.2,11.3-4.8,13.7,7.2,3.1,13.2-8,8.2-7.4-1.6.2-2.5,1.9-3.1,3.6Z"/>
        <path class="cls-2" d="M200.8,37c-.5.5-1.1.9-1.6,1.4-.9.9-2.3,2.3-2.7,3.6,1.1-.7,2.2-2.1,2.9-3,.5-.7,1-1.4,1.5-2.1M194.6,24.8c.2-.2.5-.4.7-.6,1.2-.9,3.6-2.8,5.2-1.8.2.1.4.3.5.5.7,1.1.1,2.9-.4,4-.4.9-.9,1.9-1.4,2.8-.1.3-.5.9-.8,1.5.6-.5,1.2-1,1.7-1.7.7-.9,1.3-1.9,1.9-2.8,1-1.5,2-2.9,3-4.3,1.2-1.6,2.5-3.2,4-4.5,1-.9,2.4-1.9,3.8-1.8.6-1.2,1.7-1.7,3-2.1l2.4-.8-.9,2.3c-1,2.5-2.2,5-3.5,7.4.3-.3.6-.7.9-1l.7-.8,1.7,1.2-.5.9c-1.8,3.1-4.7,5.6-7.5,7.8-2.3,4.2-5.3,9-9,12.1-1,.9-2.3,1.8-3.6,2.2-1,.3-2.3.4-3.1-.4-.6-.7-.7-1.6-.5-2.4.2-1,.7-1.9,1.3-2.7,1.5-2.2,3.9-4.2,6.1-5.9l-.2-.2c-.4.4-.8.7-1.2,1-1.3,1-4.4,3.2-6.1,1.9-1.5-1.2-.2-3.8.5-5.1.6-1.1,1.2-2.2,1.7-3.3-2,2.6-3.7,6.9-4.7,9.3l-.2.6h-.6c-1.2.5-2.5.8-3.7,1.1l-2.1.5.7-2c.2-.6.6-1.4.9-2,.2-.4.4-.8.6-1.1l-1.2,1.4,1.7-5.5c.3-1.1,1.7-2.9,2.4-3.8.6-.8,1.3-1.6,2.1-2.2.7-.6,1.7-1.3,2.7-.8.5.2.8.7,1,1.2Z"/>
        <path class="cls-3" d="M204.3,33.1c-4.4,2.8-8.2,6.3-9,8.9-.4,1.2-.2,2.1,1.3,1.4,2.1-1,5.3-5.1,7.7-10.3M212.6,18.3c-1.8.4-6.7,7.4-7.6,10.5-.4,1.5.1,1.5,1.1.6,2.1-2.1,5.5-8.5,6.4-11ZM187.6,30.8c.5-1.6,7.2-10.7,5.8-3.3,1.2-1.3,5.8-5.3,6.6-3.9.4.7-.1,2.2-.4,2.9-1.4,3-5,8.7-1.9,6.8,1.2-.9,2.4-1.8,3.4-3,1.5-2.4,8.9-14.6,12.5-12.8.4-1.5,1.4-2,2.7-2.4-2,5-4.7,9.8-7.3,14.4,2.5-2.1,4.6-4.4,6.7-6.8-1.7,3-4.5,5.4-7.4,7.7-11.4,21.6-22.3,14.8-6.1,3.7.7-.5,2.5-1.4,3-2.3.2-.3.2-.7-.1-.2-2.3,2.9-5.5,1.8-4.2-.6-1.6,3.2-10.6,8.7-6.5,1.1.7-1.4,1.3-2.2,1.9-3.7.7-1.8,1.4-3.8,0-2.9-3.1,1.9-5.6,8.2-7,11.6-1.2.3-2.5.6-3.7.9.6-1.9,8.6-15,2.1-7.3Z"/>
        <path class="cls-2" d="M131.4,47.3c.5.2,1,.5,1.3,1,1.6,2.2-.2,5.8-1.6,7.6-1,1.3-2.4,2.5-3.9,3-2,.7-4.7,1.1-6.2-.7-.9-1.2-.9-2.7-.5-4.1.4-1.6,1.4-3.2,2.5-4.5,3-3.5,7.3-5.8,11.8-6.5,2.5-.4,5-.1,7.5.4.7.1,1.7.4,2.5.4.3,0,.6,0,.9-.1.6-.1,1.1-.3,1.7-.4l2.4-.6-1.1,2.2c-.7,1.6-1.9,2.8-3.5,3.3-1.9.6-4.1.2-6-.4-1-.3-2.1-.6-3.1-.9-.7-.2-1.5-.4-2.2-.3-.8.1-1.6.3-2.4.6"/>
        <path class="cls-3" d="M127.8,53.1c-1.2.7-2.3,1.5-3.5,2.2.1-2.2,2.4-7.1,5.6-7.1,4.8,0,1.2,8.1-3.1,9.6-10.2,3.4-5.2-11.4,8.1-13.5,2.4-.4,4.8,0,7.1.4,2.9.6,2.6.5,5.5-.2-3,6.2-10.3.4-14,1.1-10.5,1.2-15.4,15.2-7.3,11,2.4-1.2,3.4-2.7,4.2-5.1,1.4-3.8-2.1-1.2-2.8,1.6"/>
        <path class="cls-2" d="M117.1,66.4c.1.1.2.3.4.4,1.4,1,4.2,0,5.6-.7,1.2-.6,2.5-1.4,3.5-2.4.9-.9,1.7-2.1,2.3-3.3.8-1.4,1.5-2.9,2.2-4.3,2-3.7,4.3-6.7,7.8-9.1l3.2-2.1-1.5,3.5c-2.5,5.9-3.4,11.7-8.2,16.5-2.7,2.7-5.7,4-9.4,4.7-2.8.5-5.8.6-8.1-1.1h0c0,0,0-.2,0-.2-1.7-1.9-2-4.3-.3-6.3.9-1,2.1-1.9,3.4-2,.4,0,.9,0,1.3.1,1.3.4,2.3,1.8,2.2,3.2,0,.2,0,.5-.2.7-.5,1.1-1.7,1.5-2.7,1.9-.2,0-.9.3-1.3.5"/>
        <path class="cls-3" d="M139.6,48.1c-7.5,5-8.3,12.6-12.2,16.5-2.8,2.8-9.5,5.6-11.4,2.1-1-1.9,4.1-1.5,4.3-3.4.1-1-1-2.2-2.1-2.1-.8.1-1.8.7-2.7,1.7-1.1,1.5-1.2,3.1.3,4.7,1.6,1.2,3.7,1.7,7.2.9,3-.5,5.9-1.7,8.8-4.4,4.4-4.7,5.5-10.3,7.9-16.1"/>
        <path class="cls-2" d="M141.2,59.4c.1-.2.3-.5.4-.8-.2,0-.4.2-.5.4,0,.1,0,.3,0,.4M139,61.6c-.5.6-.9,1.4-1.3,2,.6-.5,1.2-1.1,1.7-1.7-.1,0-.3-.2-.4-.3ZM142.8,62.5c-.3.4-.7.9-.9,1.2-.8,1-1.6,1.9-2.5,2.8-1.4,1.3-4,3.7-6.1,2.9-1-.4-1.5-1.4-1.8-2.4-.6-2.6,1.8-5.8,3.5-7.6,1.5-1.6,4.1-3.8,6.2-4.3,1.1-.2,2.4-.2,3.1.8.7,1,.4,2.3,0,3.5h.1s2.5-.8,2.5-.8l-1.1,2.4c-.3.7-.8,1.1-1.5,1.4-.4.1-.9.1-1.3.1,0,0-.1,0-.2,0Z"/>
        <path class="cls-3" d="M141.8,57.3c-2.9.4-2,3.6-.4,3.3.9-.1,2.3-3.6.4-3.3M139,59.7c.5.6.6,1.4,2.3,1.7-.3,1.2-6,6.8-5.1,3,.3-1.2,1.6-3,2.8-4.7ZM144.8,60.5c-.7.2-1.5.3-2.2.2.5-1.2,2.5-5.2-1.2-4.5-3.1.6-9.6,7.1-8.8,10.5,1.2,5.5,9.3-4.7,9.5-5.3.9-.3,2.1.4,2.7-.9Z"/>
        <path class="cls-2" d="M157,57.9l-.7,3.7c-.2,1.2-.2,1.5-1,2.5-.7.8-1.4,1.6-2.2,2.3-1.2,1.1-3.2,2.7-5,2.1-.5-.1-.8-.4-1.1-.7-.3.2-.6.4-.8.5-2.4,1.2-4.7.4-4.7-2.5,0-1.7,1.8-4.4,2.7-5.8.5-.8,1-1.6,1.5-2.4.3-.6.7-1.2,1-1.8l.3-.7h.7c1.1-.2,2.2-.3,3.2-.4l2.6-.3-1.6,2.1c-1.4,1.9-2.9,3.8-3.9,6,.7-.9,1.4-1.9,1.8-2.4.7-1,1.4-2.1,2.1-3.1.3-.4.5-.8.8-1.2.2-.2.3-.5.5-.7l.3-.4h.5c1-.1,2.1-.2,3.1-.3l2.4-.2-1.4,2c-.4.5-.7,1.1-1.1,1.6"/>
        <path class="cls-3" d="M151,55.9c-1.6,2.2-3.3,4.3-4.3,6.9-.9,2.1-.4,2.8.4,2.3,2-1.1,6.4-8.4,7-9.2,1,0,2.1-.2,3.1-.3-2.3,3.4-7.1,8.9-5.7,9.2,1.1-.6,2.4-1.8,3.7-3.5-.2,1.1,0,1.1-.8,2-1.8,2.1-6,6.6-7,2.5-.7,1.2-4.7,3.5-4.7-.1,0-2.2,4.1-7.1,5.1-9.5,1.1-.1,2.2-.2,3.2-.3"/>
        <path class="cls-2" d="M155.9,60.9l-1.5-1.5.7-.8c.5-.5,1-1.1,1.5-1.7,1-1.1,2.7-3.2,4.4-2.7.8.2,1.2.9,1.4,1.6,1.8-1,4.2-2.1,5.3-.6.9,1.1.3,2.7-.4,3.8-.6,1-1.8,2.3-3.2,2-.4,0-.8-.3-1.1-.7,0-.1,0,0-.2-.2,0-.1-.1-.2-.2-.4-1.3,1.1-2.4,2.4-3.2,3.9-.8,1.5-1.7,3-2.5,4.5l-.3.6h-.7c-1,0-1.9,0-2.9-.1h-2c0,0,1.1-1.8,1.1-1.8.3-.5.7-1.1,1.1-1.6.7-1,1.3-2,1.9-3,.1-.2.4-.7.7-1.2"/>
        <path class="cls-3" d="M156,67.5c-1,0-1.9,0-2.9-.1.4-.6,6.9-10.1,5-9.8-.7.6-1.4,1.2-2.2,1.8,2.1-2.3,5.4-7.1,5.5-1.6,9.5-6.5,4.2,3.9,2.5,1.8-.3-.4-.1-1.2,1.3-2,1.2-.6.8-1.4-.2-.9-2.7,1.4-5,3.6-6.6,6.3-.8,1.5-1.7,3-2.5,4.5"/>
        <path class="cls-2" d="M172.1,61.8c.3.1.6.3.8.6.2.2.3.4.4.7.3-.5.5-1,.7-1.5.3-.6.5-1.2.6-1.8-.7.6-1.5,1.2-2.2,1.8,0,0-.2.2-.3.2M178.7,56.3c1.4,2.2,1.8,4.8.6,7.3-1.5,2.9-5.2,5-8.4,4.5-1.2-.2-2.1-.8-2.6-1.7-1.3,1-2.7,1.9-4.3,1.8h-.3s-.3-.2-.3-.2c-.4-.2-.7-.6-.9-.9-1.1-2,1-5.2,2.1-6.9.5-.8,1.1-1.6,1.6-2.5.3-.5.8-1.2,1-1.8l.3-.7h.8c1,0,1.9,0,2.9-.1h2.2c0,0-1.2,1.8-1.2,1.8-.3.4-.5.8-.8,1.2-.4.6-.8,1.2-1.3,1.8.2,0,.3-.1.5-.2h0c2.3-2,4.6-4.2,6.7-6.5.5-.5,1.2-.9,1.9-.4.7.4.7,1.3.4,1.9-.2.4-.4.8-.6,1.1,0,.1-.2.3-.3.4Z"/>
        <path class="cls-3" d="M168.3,56.3c1,0,1.9,0,2.9-.1-1.7,2.5-3.7,5.2-4.2,6.9-.4,1.4,0,1.4,1,.7.7-.5,1.3-1.5,2.5-2.7,1.1-1.1-.2,2-.3,2,2.6-1.4,2.9,2.6.2,2.3,2.2,2.5,4.1-2,4.7-3.3.6-1.4,1.1-2.9.8-4.9-1.4,1.2-2.8,2.4-4.2,3.5-.4.3-.4,0-.2-.2,2.3-2.2,4.6-4.1,6.8-6.6.4-.5.5-.1.4.3-.3.6-1.1,1.7-1.2,2.1,4.5,5.9-2,11.3-6.3,10.5-1.8-.3-2.2-1.6-1.9-2.9-2.4,2.5-3.9,3.1-5.1,3-2.6-1.7,3.3-8,4.3-10.7"/>
        <path class="cls-2" d="M191.3,49.1h1.4c0,0-.3,1.4-.3,1.4,0,.2-.1.4-.2.7l-.2.8h-.9c-.7.1-1.3.1-2,.2-.4.7-.9,1.4-1.3,2-.8,1.1-1.5,2.3-2.3,3.4-.8,1.3-1.7,2.6-2.4,3.9,0,0-.1.2-.2.4.5-.4.9-.9,1.3-1.2l.2-.2.3-.3h.4c.5-.2.9-.1,1.3.2.6.6.4,1.3.1,2h0c0,.1-.1.3-.1.3-1.1,1.2-2.3,2.6-3.6,3.7-1,.8-2.2,1.6-3.6,1.5h-.2s-.2-.1-.2-.1c-2-1.1-2.1-3.2-1.1-5.1,3-6.2,6.6-12,10.7-17.5l.3-.5h.6c1,0,2,0,3,0h2.2s-1.2,1.8-1.2,1.8c-.6.9-1.2,1.8-1.8,2.7"/>
        <path class="cls-3" d="M189,45.8c1,0,2,0,3,0-1,1.5-2,3.1-2.9,4.5.7,0,1.4,0,2.1,0,0,.2-.1.4-.2.7-.9,0-1.7,0-2.6.1-1.7,3.1-10.6,14.9-6.3,12.8,1-.5,1.9-1.4,2.9-2.4l.2-.2c.3,0,.4,0,.1.6-2.7,3-4.5,5-6.2,4.8-1-.6-1.5-1.7-.7-3.5,3-6,6.4-11.8,10.6-17.3"/>
        <path class="cls-2" d="M170.3,50.1c.9-.5,2.1-1.1,3.1-.6,1,.5,1.2,1.5,1.2,2.5,0,2.6-4.2,4.3-5.5,1.8-.8-1.4,0-3,1.3-3.7"/>
        <path class="cls-3" d="M170.9,51.1c-.8.4-1.2,1.4-.8,2.2.8,1.4,3.4.2,3.4-1.2,0-2.1-1.1-1.7-2.5-.9"/>
        <path class="cls-5" d="M225.4,7v-.6c4.3,0,7.7,3.5,7.7,7.7,0,4.3-3.5,7.7-7.7,7.7-4.3,0-7.7-3.5-7.7-7.7,0-4.3,3.5-7.7,7.7-7.7v1.2c-1.8,0-3.5.7-4.6,1.9-1.2,1.2-1.9,2.8-1.9,4.6,0,1.8.7,3.5,1.9,4.6,1.2,1.2,2.8,1.9,4.6,1.9,1.8,0,3.5-.7,4.6-1.9,1.2-1.2,1.9-2.8,1.9-4.6,0-1.8-.7-3.5-1.9-4.6-1.2-1.2-2.8-1.9-4.6-1.9v-.6Z"/>
        <path class="cls-2" d="M225.4,7c3.9,0,7.1,3.2,7.1,7.1s-3.2,7.1-7.1,7.1-7.1-3.2-7.1-7.1,3.2-7.1,7.1-7.1"/>
        <path class="cls-8" d="M225.4,8.2v-.6c3.6,0,6.6,2.9,6.6,6.6,0,3.6-2.9,6.6-6.6,6.6-3.6,0-6.6-2.9-6.6-6.6,0-3.6,2.9-6.6,6.6-6.6v1.2c-1.5,0-2.8.6-3.8,1.6-1,1-1.6,2.3-1.6,3.8,0,1.5.6,2.8,1.6,3.8,1,1,2.3,1.6,3.8,1.6,1.5,0,2.8-.6,3.8-1.6,1-1,1.6-2.3,1.6-3.8,0-1.5-.6-2.8-1.6-3.8-1-1-2.3-1.6-3.8-1.6v-.6Z"/>
        <path class="cls-2" d="M225.4,8.2c3.3,0,6,2.7,6,6s-2.7,6-6,6-6-2.7-6-6,2.7-6,6-6"/>
        <path class="cls-7" d="M224.4,10.7v3.3h.3c.5,0,.8,0,1.1-.1.2,0,.4-.3.6-.5.1-.2.2-.6.2-1,0-.6-.1-1-.4-1.3-.2-.3-.6-.4-1.2-.4h-.5ZM224.4,14.4v2.1c0,.4,0,.7,0,.8,0,.1.1.2.2.3.1,0,.3,0,.6,0v.2h-3.5v-.2c.3,0,.5,0,.7,0,.1,0,.2-.1.2-.3,0-.1,0-.4,0-.8v-4.8c0-.4,0-.7,0-.8,0-.1-.1-.2-.2-.3-.1,0-.3,0-.6,0v-.2h3.2c.8,0,1.4,0,1.8.2.4.1.7.4.9.7.2.3.4.7.4,1.2s-.2,1-.6,1.4c-.2.2-.6.4-1,.5l1.7,2.5c.2.3.4.5.5.6.1.1.3.2.5.2v.2h-2.2l-2.2-3.4h-.5Z"/>
        <path class="cls-6" d="M53.8,110.5v-23h3.3c1.2,0,2.1.2,2.7.6.6.4,1,1,1.4,1.9.3.7.5,1.6.6,2.8.1,1.1.2,3.2.2,6.3s0,5.2-.2,6.3c-.1,1.1-.3,2-.6,2.8-.3.9-.8,1.5-1.4,1.9-.6.4-1.5.6-2.7.6h-3.3ZM56.8,91.8v14.5c0,0,.1,0,.2,0h.3c.3,0,.6,0,.8-.2.2-.2.4-.4.5-.8.1-.3.2-.8.2-1.6,0-.8,0-2.4,0-4.7v-1c0-1.9,0-3.2,0-3.9,0-.7-.1-1.1-.2-1.4-.1-.3-.3-.6-.5-.7-.2-.2-.5-.2-.9-.2h-.2c0,0-.1,0-.2,0ZM63.8,87.5h3.1v14.4c0,2.2,0,3.5.2,4,.2.5.4.8.8.8s.7-.3.8-.8c.2-.6.2-1.9.2-4v-14.4h3v14.7c0,1.7,0,2.9-.1,3.7,0,.8-.2,1.5-.4,2.1-.3,1-.8,1.8-1.3,2.3-.6.5-1.3.7-2.3.7s-1.6-.2-2.1-.7c-.5-.5-1-1.2-1.3-2.2-.2-.7-.4-1.6-.5-2.7,0-1.1-.1-3-.1-5.6v-12.4ZM85.3,110.5h-6.7v-23h3v18.3h3.6v4.6ZM86.7,110.5v-23h3v23h-3ZM87.2,116.4v-3.9h2.1v3.9h-2.1ZM97.1,101.6h3c0,.1,0,.3,0,.5v.7c0,2.8-.3,4.9-1,6.2-.7,1.4-1.8,2-3.2,2s-1.6-.2-2.2-.7c-.6-.5-1.1-1.3-1.4-2.3-.3-.7-.4-1.7-.6-3-.1-1.3-.2-3.3-.2-6.1s0-4.8.2-6.1c.1-1.3.3-2.3.6-3,.4-1,.8-1.7,1.4-2.2.6-.5,1.3-.8,2.1-.8,1.4,0,2.5.7,3.2,2.1.7,1.4,1.1,3.5,1.1,6.3v.2h-2.9c0-1.6-.1-2.7-.3-3.3-.2-.6-.5-.9-1-.9s-.8.4-1,1.2c-.2.8-.3,2.8-.3,6.1v.4c0,3.5,0,5.7.3,6.5.2.8.5,1.2,1,1.2s.8-.3.9-.9c.2-.6.3-1.7.3-3.2v-1ZM102,110.5v-23h3v8.7h2.4v-8.7h3v23h-3v-9.5h-2.4v9.5h-3ZM122.4,101.6h3c0,.1,0,.3,0,.5v.7c0,2.8-.3,4.9-1,6.2-.7,1.4-1.8,2-3.2,2s-1.6-.2-2.2-.7c-.6-.5-1.1-1.3-1.4-2.3-.3-.7-.4-1.7-.6-3-.1-1.3-.2-3.3-.2-6.1s0-4.8.2-6.1c.1-1.3.3-2.3.6-3,.4-1,.8-1.7,1.4-2.2.6-.5,1.3-.8,2.1-.8,1.4,0,2.5.7,3.2,2.1.7,1.4,1.1,3.5,1.1,6.3v.2h-2.9c0-1.6-.1-2.7-.3-3.3-.2-.6-.5-.9-1-.9s-.8.4-1,1.2c-.2.8-.3,2.8-.3,6.1v.4c0,3.5,0,5.7.3,6.5.2.8.5,1.2,1,1.2s.8-.3.9-.9c.2-.6.3-1.7.3-3.2v-1ZM127.1,99c0-2.8,0-4.8.2-6.1.1-1.3.3-2.3.6-3,.4-1,.9-1.8,1.4-2.3.6-.5,1.3-.7,2.2-.7s1.6.2,2.1.7c.6.5,1.1,1.3,1.4,2.3.3.7.5,1.7.6,3,.1,1.3.2,3.3.2,6.1s0,4.8-.2,6c-.1,1.3-.3,2.3-.6,3-.4,1-.8,1.7-1.4,2.3-.6.5-1.3.7-2.1.7s-1.6-.2-2.2-.7c-.6-.5-1.1-1.3-1.4-2.3-.3-.7-.4-1.7-.6-3-.1-1.3-.2-3.3-.2-6.1ZM128.8,85.6l1.7-4.3h2l1.7,4.3h-1.2l-1.5-2.2-1.5,2.2h-1.2ZM132.7,101.1v-4.2c0-2.5,0-4.1-.3-4.7-.2-.6-.5-.9-1-.9s-.8.3-1,.9c-.2.6-.3,2.2-.3,4.7v4.2c0,2.5,0,4,.3,4.7.2.6.5.9,1,.9s.8-.3,1-.9c.2-.6.3-2.2.3-4.7ZM135,82.7h-1.2l-2.9-4.3h2.5l1.7,4.3ZM137.6,110.5v-23h3.1l2.5,14.2c-.1-2.4-.2-4.5-.2-6.2,0-1.7,0-3.2,0-4.4v-3.6h2.7v23h-3.2l-2.5-14.6c.1,1.9.2,3.7.3,5.5,0,1.8,0,3.5,0,5.2v3.9h-2.7ZM152.4,110.5v-23h3c1.1,0,1.9,0,2.4.2.5.2,1,.5,1.3.9.5.5.8,1.3,1.1,2.3.3,1,.4,2.2.4,3.6,0,2.3-.3,4.1-1,5.3-.7,1.2-1.7,1.8-3,1.8h-1.1v8.8h-3ZM155.5,97.4s0,0,.2,0h.2c.6,0,1-.2,1.3-.7.3-.5.4-1.3.4-2.4s-.1-1.6-.4-2c-.3-.4-.8-.6-1.4-.6h-.3v5.7ZM162.2,110.5v-23h3v8.7h2.4v-8.7h3v23h-3v-9.5h-2.4v9.5h-3ZM172.7,87.5h3.1v14.4c0,2.2,0,3.5.2,4,.2.5.4.8.8.8s.7-.3.8-.8c.2-.6.2-1.9.2-4v-14.4h3v14.7c0,1.7,0,2.9-.1,3.7,0,.8-.2,1.5-.4,2.1-.3,1-.8,1.8-1.3,2.3-.6.5-1.3.7-2.3.7s-1.6-.2-2.1-.7c-.5-.5-1-1.2-1.3-2.2-.2-.7-.4-1.6-.5-2.7,0-1.1-.1-3-.1-5.6v-12.4ZM175.8,116.4v-3.9h2.1v3.9h-2.1ZM183,110.5v-23h3.1l2.5,14.2c-.1-2.4-.2-4.5-.2-6.2,0-1.7,0-3.2,0-4.4v-3.6h2.7v23h-3.2l-2.5-14.6c.1,1.9.2,3.7.3,5.5,0,1.8,0,3.5,0,5.2v3.9h-2.7ZM201.1,97.9v12.6h-2.1v-1.4c-.4.6-.8,1.1-1.1,1.4-.4.3-.8.5-1.3.5s-1-.2-1.4-.5c-.4-.3-.8-.9-1.2-1.5-.4-.8-.7-1.9-.9-3.3-.2-1.3-.3-3.7-.3-6.9s0-4.2.2-5.6c.1-1.4.3-2.4.6-3.2.4-1,.8-1.8,1.4-2.3.6-.5,1.3-.8,2.1-.8,1.3,0,2.2.6,2.9,1.8.6,1.2,1,3.1,1,5.5v.4c0,.2,0,.3,0,.4h-2.9v-.3c0-1.3,0-2.3-.2-2.8-.2-.6-.4-.9-.8-.9s-.7.3-.9,1c-.2.7-.2,2.3-.2,4.9v3.9c0,2.6,0,4.2.2,4.8.2.7.4,1,.8,1s.7-.3.9-.9c.2-.6.3-1.5.3-2.8v-.7c0-.2,0-.3,0-.5h-1.2v-4h4.1ZM207.7,110.5v-23h3.2c1,0,1.7,0,2.1.2.4.1.8.4,1.1.7.5.5.8,1.2,1,2,.2.8.4,1.8.4,2.9s-.1,1.9-.3,2.7c-.2.8-.6,1.5-1.1,2.3.6.5,1,1.2,1.3,2.1.3.9.4,2,.4,3.2s-.1,2-.3,2.9-.5,1.7-.8,2.4c-.3.6-.7,1.1-1.2,1.3-.5.3-1.3.4-2.3.4h-3.6ZM210.7,96.5h.2c.6,0,1-.2,1.3-.7.3-.4.4-1.1.4-2s-.1-1.4-.4-1.9c-.3-.4-.7-.6-1.2-.6h-.2c0,0,0,0-.1,0v5.2ZM210.7,106.4h.3c.6,0,1.1-.3,1.4-.8.3-.5.5-1.3.5-2.4s-.2-1.7-.5-2.1c-.3-.5-.8-.7-1.5-.7h-.2v6ZM217.6,110.5v-23h7v4.5h-4v4.2h3.7v4.6h-3.7v5h4v4.7h-7ZM218.5,85.6l1.7-4.3h2l1.7,4.3h-1.2l-1.5-2.2-1.5,2.2h-1.2ZM224.8,78.4h2.5l-2.9,4.3h-1.2l1.7-4.3ZM226.5,110.5v-23h3.1l2.5,14.2c-.1-2.4-.2-4.5-.2-6.2,0-1.7,0-3.2,0-4.4v-3.6h2.7v23h-3.2l-2.5-14.6c.1,1.9.2,3.7.3,5.5,0,1.8,0,3.5,0,5.2v3.9h-2.7ZM242.9,110.5v-18.5h-2.4v-4.5h8v4.5h-2.5v18.5h-3ZM249.7,110.5v-23h3.4c1.1,0,1.9,0,2.4.3.5.2.9.5,1.2.9.4.6.7,1.2.8,2,.2.8.3,1.7.3,2.8s-.1,2.4-.4,3.3c-.3.9-.7,1.6-1.2,2.2.9.7,1.4,2.5,1.5,5.2h0c0,.4,0,.8,0,1.3,0,2.6.3,4.2.7,4.9h-3.5c0-.5-.1-1-.2-1.5,0-.5,0-1.1,0-1.7s0-.8,0-1.3c0-.5,0-.9,0-1,0-1.4-.1-2.4-.3-2.9-.2-.5-.6-.8-1.1-.8h-.6v9.2h-3ZM252.7,97.1h.2c0,0,.2,0,.2,0,.6,0,1.1-.2,1.3-.7.3-.5.4-1.2.4-2.3s-.1-1.7-.4-2.1c-.3-.4-.7-.6-1.3-.6h-.2c0,0-.1,0-.2,0v5.6ZM259.8,110.5v-23h7v4.5h-4v4.2h3.7v4.6h-3.7v5h4v4.7h-7Z"/>
      </g>
    </g>
  </g>
</svg>